<?xml version="1.0" standalone="yes"?>
<svg xmlns="http://www.w3.org/2000/svg" width="315" height="217">
<path style="fill:#9cc045; stroke:none;" d="M0 0L34 35L100 101L101 101L167 35L201 0L0 0z"/>
<path style="fill:#010101; stroke:none;" d="M101 101L100 101L51 51L0 1L0 216C25.7511 197.861 47.705 169.295 70 147L209 8L209 217L220 217L220 122L282 184L315 216L315 0L237 0C226.884 0 211.507 -2.90193 202 0.603394C191.135 4.60942 180.126 20.8739 172 29C149.07 51.9296 119.655 74.5169 101 101z"/>
<path style="fill:#9cc045; stroke:none;" d="M208 8L89 127C69.8777 146.122 45.5612 164.909 30 187L162 121.247L194 105L208 100L209 100L209 36L208 8z"/>
<path style="fill:#7b963b; stroke:none;" d="M0 217L89 217C102.528 217 118.778 219.468 132 216.61C144.144 213.984 156.903 204.795 168 199.247C177.662 194.416 187.498 189.83 197 184.691C200.316 182.898 205.885 180.883 207.972 177.61C210.99 172.876 209 162.461 209 157C209 138.387 212.313 116.116 208 98C185.579 104.459 162.947 120.28 142 130.753L66 168.753C40.7932 181.356 16.808 193.139 0 217M220 122L220 175L221 175C224.892 167.508 247.745 155.974 256 158C247.166 145.46 232.54 130.834 220 122z"/>
<path style="fill:#687d36; stroke:none;" d="M220 217L243 216.363L291 193C283.955 182.999 273.651 174.637 265 166C261.886 162.891 257.758 157.304 253 156.904C247.517 156.443 239.776 162.365 235 164.753C230.757 166.875 223.8 168.89 221.318 173.213C215.651 183.081 220 205.713 220 217M208 178L133 216L133 217L209 217C209 205.828 212.311 188.274 208 178z"/>
<path style="fill:#596932; stroke:none;" d="M243 216L243 217L315 217C310.491 210.599 298.886 195.521 291 193.816C286.669 192.88 280.707 197.393 277 199.247C265.751 204.872 254.61 211.166 243 216z"/>
</svg>
